<?xml version="1.0" encoding="utf-8"?>
<!-- Generator: Adobe Illustrator 24.3.0, SVG Export Plug-In . SVG Version: 6.00 Build 0)  -->
<svg version="1.1" id="Capa_1" xmlns="http://www.w3.org/2000/svg" xmlns:xlink="http://www.w3.org/1999/xlink" x="0px" y="0px"
	 viewBox="0 0 107 101" style="enable-background:new 0 0 107 101;" xml:space="preserve">
<style type="text/css">
	.st0{fill:#E43D30;stroke:#1D1D1D;stroke-width:2;stroke-miterlimit:10;}
	.st1{fill:#E0DBD5;stroke:#1D1D1D;stroke-width:2;stroke-miterlimit:10;}
	.st2{fill:#18988B;stroke:#222222;stroke-width:2;stroke-miterlimit:10;}
	.st3{fill:none;stroke:#1D1D1D;stroke-width:2;stroke-miterlimit:10;}
</style>
<g>
	<circle class="st0" cx="78.36" cy="81.2" r="13.82"/>
	<circle class="st1" cx="78.36" cy="81.2" r="6.84"/>
	<circle class="st0" cx="22.8" cy="81.2" r="13.82"/>
	<circle class="st1" cx="22.8" cy="81.2" r="6.84"/>
	<path class="st0" d="M87.68,30.01H61.25c-1.54,0-2.79,1.26-2.79,2.79v2.04c0,1.54,1.26,2.79,2.79,2.79h26.44
		c1.54,0,2.79-1.26,2.79-2.79v-2.04C90.48,31.27,89.22,30.01,87.68,30.01z"/>
	<path class="st2" d="M25.35,9.27h4.45h9.92c1.86,0,3.39,1.52,3.39,3.39v0c0,1.86-1.52,3.39-3.39,3.39h-9.92v37.43h31.81
		c1.02,0,1.86-0.84,1.86-1.86V37.64H83.1c6.65,0,12.09,5.44,12.09,12.09v16.55c0,6.65-5.44,12.09-12.09,12.09
		c0,0-56.5-0.01-56.55-0.01h-4.59V58.34c0,0,0-0.01,0-0.01v-0.66c0,0,0,0,0,0V12.66v0C21.97,10.79,23.49,9.27,25.35,9.27z"/>
	<path class="st1" d="M74.29,58.84l20.91,0.01v19.39H58.91c-0.27-1.16-0.42-2.36-0.42-3.6C58.48,65.95,65.59,58.84,74.29,58.84z"/>
	<line class="st3" x1="91.22" y1="49.27" x2="88.82" y2="45.76"/>
	<line class="st3" x1="79.74" y1="51.1" x2="81.37" y2="47.17"/>
	<line class="st3" x1="26.2" y1="51.1" x2="27.83" y2="47.17"/>
	<line class="st3" x1="44.97" y1="63.89" x2="46.6" y2="59.96"/>
	<line class="st3" x1="63.43" y1="48.11" x2="67.12" y2="46"/>
	<line class="st3" x1="21.99" y1="58.54" x2="25.68" y2="56.43"/>
	<line class="st3" x1="77.37" y1="42.7" x2="73.58" y2="40.79"/>
	<line class="st3" x1="36.52" y1="14.26" x2="33.99" y2="10.85"/>
	<line class="st3" x1="27.45" y1="19.5" x2="23.65" y2="17.58"/>
	<line class="st3" x1="27.39" y1="38.47" x2="23.43" y2="40.01"/>
	<line class="st3" x1="25.92" y1="31.44" x2="22.12" y2="29.52"/>
	<line class="st3" x1="83.51" y1="40.5" x2="87.22" y2="38.42"/>
	<line class="st3" x1="25.63" y1="27.59" x2="29.34" y2="25.51"/>
	<line class="st3" x1="61.38" y1="58.49" x2="65.09" y2="56.4"/>
	<line class="st3" x1="25.3" y1="13.95" x2="29.01" y2="11.87"/>
	<line class="st3" x1="38.02" y1="58.49" x2="41.73" y2="56.4"/>
	<line class="st3" x1="80.79" y1="59.29" x2="77.78" y2="56.29"/>
	<line class="st3" x1="69.06" y1="50.97" x2="71.5" y2="54.45"/>
	<line class="st3" x1="54.24" y1="65.12" x2="50.86" y2="67.7"/>
	<line class="st3" x1="55.64" y1="74.55" x2="51.68" y2="73.01"/>
	<line class="st3" x1="45.75" y1="72.21" x2="43.22" y2="75.63"/>
	<line class="st3" x1="58.59" y1="61.44" x2="61.03" y2="64.92"/>
	<line class="st3" x1="38.85" y1="65.05" x2="41.28" y2="68.54"/>
	<line class="st3" x1="55.43" y1="57.83" x2="51.26" y2="56.99"/>
	<line class="st3" x1="90.9" y1="55.29" x2="86.83" y2="54.06"/>
	<path class="st1" d="M6.89,78.44c-0.01-0.78-0.03-3.02-0.03-3.69c0-8.66,7.07-15.75,15.72-15.8v0c0.01,0,0.02,0,0.02,0
		c0.01,0,0.02,0,0.02,0v0c8.65,0.05,15.72,7.14,15.72,15.8c0,0.67-0.01,2.91-0.02,3.69H6.89z"/>
	
		<rect x="49.98" y="13.98" transform="matrix(-1 -4.492951e-11 4.492951e-11 -1 149.3587 35.9325)" class="st1" width="49.39" height="7.98"/>
	
		<rect x="49.98" y="6" transform="matrix(-1 -4.489266e-11 4.489266e-11 -1 149.3587 19.9789)" class="st1" width="49.39" height="7.98"/>
	
		<rect x="49.98" y="21.93" transform="matrix(-1 -4.492951e-11 4.492951e-11 -1 149.3587 51.8486)" class="st1" width="49.39" height="7.98"/>
	
		<rect x="72.25" y="6.11" transform="matrix(-1 -4.490909e-11 4.490909e-11 -1 149.9467 35.9542)" class="st0" width="5.45" height="23.73"/>
</g>
</svg>
