<?xml version="1.0" encoding="UTF-8"?>
<svg width="512px" height="86px" viewBox="0 0 512 86" version="1.1" xmlns="http://www.w3.org/2000/svg" xmlns:xlink="http://www.w3.org/1999/xlink">
    <title>Group</title>
    <g id="Page-1" stroke="none" stroke-width="1" fill="none" fill-rule="evenodd">
        <g id="Group">
            <rect id="Rectangle" fill="#26988A" x="0" y="0" width="32" height="86"></rect>
            <rect id="Rectangle-Copy-8" fill="#26988A" x="256" y="0" width="32" height="86"></rect>
            <rect id="Rectangle-Copy-4" fill="#26988A" x="128" y="0" width="32" height="86"></rect>
            <rect id="Rectangle-Copy-9" fill="#26988A" x="384" y="0" width="32" height="86"></rect>
            <rect id="Rectangle-Copy-2" fill="#26988A" x="64" y="0" width="32" height="86"></rect>
            <rect id="Rectangle-Copy-10" fill="#26988A" x="320" y="0" width="32" height="86"></rect>
            <rect id="Rectangle-Copy-5" fill="#26988A" x="192" y="0" width="32" height="86"></rect>
            <rect id="Rectangle-Copy-11" fill="#26988A" x="448" y="0" width="32" height="86"></rect>
            <rect id="Rectangle-Copy" fill="#087A6C" x="32" y="0" width="32" height="86"></rect>
            <rect id="Rectangle-Copy-12" fill="#087A6C" x="288" y="0" width="32" height="86"></rect>
            <rect id="Rectangle-Copy-6" fill="#087A6C" x="160" y="0" width="32" height="86"></rect>
            <rect id="Rectangle-Copy-13" fill="#087A6C" x="416" y="0" width="32" height="86"></rect>
            <rect id="Rectangle-Copy-3" fill="#087A6C" x="96" y="0" width="32" height="86"></rect>
            <rect id="Rectangle-Copy-14" fill="#087A6C" x="352" y="0" width="32" height="86"></rect>
            <rect id="Rectangle-Copy-7" fill="#087A6C" x="224" y="0" width="32" height="86"></rect>
            <rect id="Rectangle-Copy-15" fill="#087A6C" x="480" y="0" width="32" height="86"></rect>
        </g>
    </g>
</svg>