<svg xmlns="http://www.w3.org/2000/svg" viewBox="0 0 146.76 141.32"><defs><style>.cls-1{fill:#e43d30;}.cls-1,.cls-2,.cls-4{stroke:#1d1d1d;}.cls-1,.cls-2,.cls-3,.cls-4{stroke-miterlimit:10;stroke-width:3px;}.cls-2{fill:#e0dbd5;}.cls-3{fill:#18988b;stroke:#222;}.cls-4{fill:none;}</style></defs><g id="Layer_2" data-name="Layer 2"><g id="Capa_1" data-name="Capa 1"><circle class="cls-1" cx="112.61" cy="118.35" r="21.48"/><circle class="cls-2" cx="112.61" cy="118.35" r="10.63"/><circle class="cls-1" cx="26.27" cy="118.35" r="21.48"/><circle class="cls-2" cx="26.27" cy="118.35" r="10.63"/><rect class="cls-1" x="81.67" y="38.81" width="49.76" height="11.85" rx="5.93" transform="translate(213.11 89.48) rotate(-180)"/><path class="cls-3" d="M30.24,6.58H52.58a5.27,5.27,0,0,1,5.27,5.26h0a5.28,5.28,0,0,1-5.27,5.27H37.16V75.26H86.59a2.9,2.9,0,0,0,2.89-2.89V50.66H120a18.84,18.84,0,0,1,18.79,18.79V95.17A18.84,18.84,0,0,1,120,114l-87.86,0H25V82.83h0v-1h0V11.84h0A5.27,5.27,0,0,1,30.24,6.58Z"/><path class="cls-2" d="M106.27,83.6l32.49,0v30.13H82.38a24,24,0,0,1-.66-5.6A24.63,24.63,0,0,1,106.27,83.6Z"/><line class="cls-4" x1="132.59" y1="68.73" x2="128.86" y2="63.28"/><line class="cls-4" x1="114.75" y1="71.57" x2="117.28" y2="65.47"/><line class="cls-4" x1="31.56" y1="71.57" x2="34.09" y2="65.47"/><line class="cls-4" x1="60.73" y1="91.45" x2="63.26" y2="85.35"/><line class="cls-4" x1="89.41" y1="66.94" x2="95.14" y2="63.65"/><line class="cls-4" x1="25.02" y1="83.14" x2="30.75" y2="79.85"/><line class="cls-4" x1="111.07" y1="58.53" x2="105.17" y2="55.55"/><line class="cls-4" x1="47.6" y1="14.34" x2="43.66" y2="9.03"/><line class="cls-4" x1="33.5" y1="22.47" x2="27.6" y2="19.5"/><line class="cls-4" x1="33.41" y1="51.95" x2="27.26" y2="54.35"/><line class="cls-4" x1="31.12" y1="41.03" x2="25.22" y2="38.05"/><line class="cls-4" x1="120.61" y1="55.1" x2="126.37" y2="51.87"/><line class="cls-4" x1="30.68" y1="35.05" x2="36.44" y2="31.82"/><line class="cls-4" x1="86.23" y1="83.05" x2="91.99" y2="79.82"/><line class="cls-4" x1="30.16" y1="13.85" x2="35.92" y2="10.62"/><line class="cls-4" x1="49.93" y1="83.05" x2="55.69" y2="79.82"/><line class="cls-4" x1="116.38" y1="84.31" x2="111.7" y2="79.64"/><line class="cls-4" x1="98.16" y1="71.37" x2="101.94" y2="76.79"/><line class="cls-4" x1="75.13" y1="93.37" x2="69.87" y2="97.36"/><line class="cls-4" x1="77.31" y1="108.01" x2="71.15" y2="105.62"/><line class="cls-4" x1="61.93" y1="104.38" x2="58" y2="109.69"/><line class="cls-4" x1="81.89" y1="87.64" x2="85.68" y2="93.05"/><line class="cls-4" x1="51.21" y1="93.26" x2="54.99" y2="98.67"/><line class="cls-4" x1="76.98" y1="82.03" x2="70.5" y2="80.73"/><line class="cls-4" x1="132.09" y1="78.08" x2="125.77" y2="76.18"/><path class="cls-2" d="M1.55,114.05c0-1.21-.05-4.69-.05-5.74A24.62,24.62,0,0,1,25.92,83.77H26a24.61,24.61,0,0,1,24.42,24.54c0,1,0,4.53,0,5.74Z"/><rect class="cls-2" x="68.51" y="13.89" width="76.75" height="12.4" transform="translate(213.77 40.19) rotate(-180)"/><rect class="cls-2" x="68.51" y="1.5" width="76.75" height="12.4" transform="translate(213.77 15.4) rotate(-180)"/><rect class="cls-2" x="68.51" y="26.26" width="76.75" height="12.4" transform="translate(213.77 64.92) rotate(-180)"/><rect class="cls-1" x="103.11" y="1.67" width="8.46" height="36.88" transform="translate(214.68 40.22) rotate(-180)"/></g></g></svg>