<?xml version="1.0" encoding="UTF-8"?>
<svg width="38px" height="33px" viewBox="0 0 38 33" version="1.1" xmlns="http://www.w3.org/2000/svg" xmlns:xlink="http://www.w3.org/1999/xlink">
    <title>next-arrow-black</title>
    <g id="Page-1" stroke="none" stroke-width="1" fill="none" fill-rule="evenodd">
        <g id="next-arrow-black" fill="#FFFFFF" fill-rule="nonzero">
            <path d="M0,16.5 C0,15.1984208 1.06320493,14.1432824 2.37473469,14.1432824 L29.8884108,14.1432824 L19.6913,4.02825062 C18.762737,3.10673257 18.762737,1.6126566 19.6913,0.691138541 C20.6198631,-0.230379514 22.1253613,-0.230379514 23.0539243,0.691138541 L37.3023325,14.831444 C37.7489807,15.2735843 38,15.8739273 38,16.5 C38,17.1260727 37.7489807,17.7264157 37.3023325,18.168556 L23.0539243,32.3088615 C22.1253613,33.2303795 20.6198631,33.2303795 19.6913,32.3088615 C18.762737,31.3873434 18.762737,29.8932674 19.6913,28.9717494 L29.8884108,18.8567176 L2.37473469,18.8567176 C1.06320493,18.8567176 0,17.8015792 0,16.5 Z" id="Path"></path>
        </g>
    </g>
</svg>