<?xml version="1.0" encoding="UTF-8"?>
<svg width="260px" height="260px" viewBox="0 0 260 260" version="1.1" xmlns="http://www.w3.org/2000/svg" xmlns:xlink="http://www.w3.org/1999/xlink">
    <title>Artboard</title>
    <g id="Artboard" stroke="none" stroke-width="1" fill="none" fill-rule="evenodd">
        <g id="pizza" transform="translate(38.000000, 16.000000)" fill-rule="nonzero">
            <g id="Group" transform="translate(26.000000, 113.000000)" fill="#FFEBA1">
                <path d="M122.846645,0.740603996 C121.733082,0.164771467 120.387674,0.249758687 119.356663,0.957408301 L102.39855,12.605876 C101.492244,13.2285384 100.95127,14.251855 100.95127,15.3428151 L100.95127,65.3396477 C100.95127,71.7952158 106.269672,77.0453516 112.805263,77.0453516 C119.340855,77.0453516 124.659257,71.7952158 124.659257,65.3396477 L124.659257,3.69434703 C124.659257,2.4542261 123.960207,1.3147022 122.846645,0.740603996 L122.846645,0.740603996 Z" id="Path"></path>
                <path d="M85.1822446,26.6131757 C84.0669263,26.0373431 82.7232743,26.1223304 81.6905072,26.82998 L64.7341502,38.4784476 C63.8260877,39.10111 63.2868705,40.1244271 63.2868705,41.2153868 L63.2868705,58.2700893 C63.2868705,64.723923 68.6035157,69.9757932 75.1408638,69.9757932 C81.6764559,69.9757932 86.994857,64.723923 86.994857,58.2700893 L86.994857,29.5669192 C86.994857,28.3250635 86.2958071,27.1872739 85.1822446,26.6131757 L85.1822446,26.6131757 Z" id="Path"></path>
                <path d="M22.2378737,69.8491795 C21.1225549,69.2750813 19.7789033,69.3583342 18.7461358,70.0677186 L1.78977923,81.7144515 C0.883473022,82.3388482 0.34249955,83.360431 0.34249955,84.4513907 L0.34249955,103.294296 C0.34249955,109.74813 5.65914478,115 12.1964928,115 C18.7320845,115 24.0504861,109.74813 24.0504861,103.294296 L24.0504861,72.8046573 C24.0504861,71.5628016 23.3514362,70.4250121 22.2378737,69.8491795 Z" id="Path"></path>
            </g>
            <path d="M149.164971,114.376162 C148.037637,113.805468 146.67559,113.889696 145.631828,114.591031 L138.999407,119.051727 L138.999407,178.398753 C138.999407,182.684115 136.58293,186.431443 133,188.439186 C134.765682,189.431025 136.814087,190 138.999407,190 C145.615825,190 151,184.796714 151,178.398753 L151,117.303547 C151,116.074492 150.292304,114.945137 149.164971,114.376162 Z" id="Path" fill="#F7D36F"></path>
            <path d="M111.165152,139.381786 C110.036152,138.802559 108.676017,138.888047 107.630581,139.599868 L101.000592,144.127258 L101.000592,171.225298 C101.000592,175.574732 98.5825758,179.376344 95,181.41585 C96.7672855,182.420773 98.8154878,183 101.000592,183 C107.616357,183 113,177.718918 113,171.225298 L113,142.35294 C113,141.103764 112.292375,139.959268 111.165152,139.381786 L111.165152,139.381786 Z" id="Path" fill="#F7D36F"></path>
            <path d="M48.1651521,182.382611 C47.0361516,181.802558 45.6760174,181.886674 44.6305808,182.603416 L38.0005928,187.149208 L38.0005928,216.174632 C38.0005928,220.541677 35.5825762,224.361965 32,226.41055 C33.7672859,227.419947 35.8154882,228 38.0005928,228 C44.6163572,228 50,222.695408 50,216.174632 L50,185.366991 C50,184.114007 49.2923748,182.964416 48.1651521,182.382611 Z" id="Path" fill="#F7D36F"></path>
            <path d="M166.399952,102.488863 C165.958563,101.857309 165.627086,101.171821 165.417731,100.456755 C165.391562,100.373244 162.844417,91.9020676 154.039322,79.8503446 C145.707018,68.4475738 130.141521,51.9036397 103.307525,37.8493859 C76.4717847,23.7951317 53.980148,20.4059652 39.8365159,20.0388634 C24.8973373,19.6456646 16.4516334,22.3650011 16.3678917,22.3928382 C15.6648098,22.6224942 14.9233466,22.7390617 14.1609479,22.7390617 C14.1452459,22.7390617 14.1278,22.7390617 14.1155875,22.7390617 C13.2310652,22.7390617 12.3814353,23.0870254 11.7551172,23.708141 C11.1218201,24.3327359 10.7659177,25.1817674 10.7624282,26.0690746 L10,208.64215 C9.99479556,209.8896 10.6856654,211.036141 11.7934986,211.61724 C12.2837366,211.872993 12.819335,212 13.3514443,212 C14.0248673,212 14.6948013,211.798181 15.2670365,211.401502 L165.56079,107.142878 C167.080354,106.088548 167.457191,104.004245 166.399952,102.488863 Z" id="Path" fill="#FFDB57"></path>
            <path d="M11.793512,211.61656 C12.2837536,211.874511 12.8176115,212 13.3514693,212 C14.0248973,212 14.6948363,211.797823 15.2670758,211.40044 L165.561951,106.956742 C167.081525,105.90054 167.456621,103.812538 166.399374,102.294466 C165.959727,101.66179 165.628246,100.975085 165.417146,100.25875 C165.401444,100.202977 164.220328,96.2796938 160.722339,90 L10.0593473,194.356553 L10,208.637933 C9.99479552,209.885854 10.6856705,211.036173 11.793512,211.61656 Z" id="Path" fill="#F6C134"></path>
            <path d="M68.0008711,71 C56.4210327,71 47,80.4214239 47,92 C47,103.580319 56.4210327,113 68.0008711,113 C79.5807091,113 89,103.580319 89,92 C89,80.4196816 79.5807091,71 68.0008711,71 Z" id="Path" fill="#F2433B"></path>
            <path d="M68.0008711,98.4412382 C59.0171748,98.4412382 51.3350342,92.8433013 48.3416301,85 C47.4774111,87.2659951 47,89.7176717 47,92.2793813 C47,103.705637 56.4210327,113 67.9991284,113 C79.5789669,113 89,103.705637 89,92.2793813 C89,89.7193908 88.5225885,87.2659951 87.6583694,85 C84.6649658,92.8433013 76.9845675,98.4412382 68.0008711,98.4412382 Z" id="Path" fill="#D83636"></path>
            <path d="M27.033922,105.31954 C23.1944875,101.38158 18.0578525,99.1362977 12.5699655,99 C11.6744451,98.9881232 10.8032692,99.3193369 10.1581467,99.9451571 C9.51476299,100.57272 9.1495996,101.433877 9.14612163,102.335127 L9,137.635563 C8.99483989,138.536814 9.35304778,139.399713 9.99295354,140.032506 C10.6189483,140.653097 11.4623022,141 12.3404337,141 L12.3960777,141 C23.7578828,140.809987 33,131.387822 33,119.997548 C33,114.478477 30.8803121,109.264472 27.033922,105.31954 L27.033922,105.31954 Z" id="Path" fill="#F2433B"></path>
            <path d="M12.3977898,126.775 C12.3786625,126.776773 12.3612735,126.776773 12.3421457,126.776773 C11.4640131,126.776773 10.6206581,126.424022 9.99292375,125.792971 C9.50777706,125.303728 9.18434579,124.677995 9.05914667,124.004401 L9,138.578851 C8.99654756,139.495293 9.35475592,140.372738 9.99292375,141.016198 C10.6189193,141.647249 11.4622744,142 12.3421457,142 L12.3977898,142 C23.7578711,141.806785 33,132.225794 33,120.643521 C33,117.989915 32.5218093,115.408985 31.6158547,113 C28.6336811,120.909413 21.1460782,126.627873 12.3977898,126.775 L12.3977898,126.775 Z" id="Path" fill="#D83636"></path>
            <path d="M117.007587,105 C105.423085,105 96,114.268481 96,125.659096 C96,134.044782 101.091534,141.53739 108.97025,144.749732 C109.38336,144.91772 109.81913,145 110.253157,145 C110.927728,145 111.595327,144.801157 112.165314,144.410328 L136.563189,127.721234 C137.49748,127.080137 138.039577,126.017356 137.997743,124.896293 C137.584634,113.738805 128.363746,105 117.007587,105 L117.007587,105 Z" id="Path" fill="#F2433B"></path>
            <path d="M144.081975,68.6415878 C137.513748,61.7911013 129.915416,55.3820258 121.494746,49.593684 C120.688121,49.0401966 119.680713,48.8643218 118.732668,49.1057182 C109.468709,51.4851975 103,59.7564741 103,69.2174905 C103,80.6769244 112.440299,90 124.042073,90 C134.934994,90 143.938808,81.9339105 144.984627,71.2383236 C145.077161,70.2830836 144.748925,69.3364644 144.081975,68.6415878 L144.081975,68.6415878 Z" id="Path" fill="#F2433B"></path>
            <path d="M141.328627,65.3673319 C137.522478,70.8889631 131.189952,74.4310417 124.042073,74.4310417 C115.16222,74.4310417 107.555158,68.8566227 104.470082,61 C103.518544,63.4282507 103,66.0623748 103,68.793277 C103,80.4875915 112.440299,90 124.042073,90 C134.934994,90 143.938808,81.7703417 144.984627,70.853771 C145.077161,69.8807113 144.748925,68.9146894 144.081975,68.2038103 C143.184562,67.2501062 142.264451,66.3052001 141.328627,65.3673319 L141.328627,65.3673319 Z" id="Path" fill="#D83636"></path>
            <path d="M73.2664594,28.0309394 C72.9563164,26.9109062 72.0677039,26.0367341 70.9264468,25.7259934 C60.3693842,22.8644454 50.0074675,21.2851305 40.1247046,21.0324397 C39.4138147,21.0136589 38.7220911,21.0051218 38.0425638,21 C38.033852,21 38.0251403,21 38.016428,21 C36.8629746,21 35.7879276,21.5822122 35.1763536,22.5434603 C33.0976974,25.8062398 32,29.5692774 32,33.4228063 C32,44.7699708 41.4210331,54 52.9991289,54 C64.5789673,54 74,44.7699708 74,33.4228063 C74,31.6044595 73.7525827,29.7912354 73.2664594,28.0309394 Z" id="Path" fill="#F2433B"></path>
            <path d="M72.2976271,25.6076525 C69.0793229,33.1636802 61.642549,38.4687521 53,38.4687521 C44.1291901,38.4687521 36.5303684,32.8765867 33.45843,25 C32.5000831,27.4623138 32,30.093714 32,32.770908 C32,44.4765865 41.4214239,54 53,54 C64.5803188,54 74,44.4765865 74,32.770908 C74,30.8968722 73.7543147,29.0245975 73.2664289,27.2086849 C73.0991538,26.5816578 72.7558909,26.0321285 72.2976271,25.6076525 Z" id="Path" fill="#D83636"></path>
            <path d="M80.7496249,162.874375 C77.541135,155.052605 70.0478028,150 61.6580815,150 C50.267257,150 41,159.344639 41,170.832703 C41,176.611306 43.414937,182.182481 47.6226522,186.114973 C48.2516672,186.700958 49.0537897,187 49.8627679,187 C50.5174916,187 51.1739295,186.804672 51.7429566,186.405373 L79.5875759,166.870825 C80.857603,165.980612 81.340933,164.31773 80.7496249,162.874375 L80.7496249,162.874375 Z" id="Path" fill="#F2433B"></path>
            <path d="M184.437233,95.3838756 C183.910274,93.5858858 170.852826,51.0259139 112.292572,20.2285911 C112.269963,20.2164071 112.249093,20.2042231 112.226484,20.1937796 C53.6436208,-10.5861375 11.2156101,2.81611073 9.43821133,3.40093613 C2.24861462,5.76808654 -1.67661973,13.5500936 0.688607948,20.7455349 C1.8347,24.2318597 4.26775417,27.0619971 7.54081166,28.7155211 C10.8138692,30.3707859 14.5356249,30.6492742 17.9791177,29.5144344 C18.0556402,29.4900669 25.8226303,27.1333596 39.1496449,27.4797295 C52.539268,27.8295803 73.8750134,31.0722284 99.4872984,44.5336556 C125.099584,57.9950832 139.877039,73.7348929 147.76403,84.5680872 C155.614499,95.3508055 158.082336,103.091039 158.09451,103.12759 C159.129297,106.648727 161.470177,109.555448 164.689321,111.313405 C166.736287,112.43258 168.979775,113 171.247611,113 C172.546747,113 173.854579,112.813761 175.136323,112.436062 C178.6546,111.402174 181.55896,109.05765 183.317228,105.835889 C185.072019,102.615868 185.470281,98.9032715 184.437233,95.3838756 Z" id="Path" fill="#FF9F34"></path>
            <path d="M176.743855,101.173927 C176.729918,101.128681 173.78215,91.9071144 164.412709,79.0606146 C154.996228,66.1532066 137.354918,47.4003105 106.781409,31.3604588 C76.2061586,15.3223472 50.7372358,11.459 34.7544804,11.0413409 C18.8431547,10.6289026 9.57301751,13.4376602 9.48068166,13.4672447 C6.42315689,14.4713668 3.18270294,14.5444569 0.116466947,13.7039182 C-0.143117694,15.6808382 0.0241315426,17.7447703 0.689643905,19.7617161 C1.83774034,23.2474295 4.27504963,26.0770705 7.55383131,27.7303044 C10.832613,29.3852789 14.5608777,29.6637184 18.0103927,28.5290776 C18.087049,28.5047144 25.8676227,26.1484205 39.2179446,26.4947296 C52.6309846,26.8445191 74.0040437,30.0865984 99.6611215,43.5456644 C125.3182,57.0047309 140.121499,72.74178 148.022284,83.5730741 C155.886482,94.3539011 158.358635,102.092777 158.37083,102.129322 C159.407427,105.649841 161.7524,108.556053 164.977175,110.313701 C167.02772,111.43268 169.275132,112 171.546934,112 C172.848342,112 174.158461,111.813794 175.442447,111.436161 C177.553969,110.816632 179.444234,109.723758 181,108.25499 C179.015657,106.321576 177.547,103.904374 176.743855,101.173927 Z" id="Path" fill="#FB8F2D"></path>
            <path d="M108.097954,144.750176 C108.509246,144.917866 108.943098,145 109.375216,145 C110.04682,145 110.711482,144.80151 111.278962,144.411374 L135.56951,127.751887 C136.49969,127.111927 137.039403,126.051032 136.997753,124.931958 C136.79471,119.452944 134.467524,114.560846 130.811013,111 L97,134.115551 C99.1345558,138.833115 103.037495,142.681429 108.097954,144.750176 L108.097954,144.750176 Z" id="Path" fill="#D83636"></path>
            <path d="M47.4850681,186.131121 C48.1149874,186.706414 48.9221786,187 49.7328123,187 C50.3902685,187 51.0511672,186.808236 51.6208482,186.416222 L79.581681,167.238083 C80.8570087,166.364113 81.342356,164.729873 80.7485799,163.314549 C78.8416119,158.768206 75.4252478,155.175593 71.2068555,153 L41,173.651161 C41.6041028,178.397754 43.8897107,182.847367 47.4850681,186.131121 Z" id="Path" fill="#D83636"></path>
        </g>
    </g>
</svg>