<?xml version="1.0" encoding="UTF-8"?>
<svg width="41px" height="35px" viewBox="0 0 41 35" version="1.1" xmlns="http://www.w3.org/2000/svg" xmlns:xlink="http://www.w3.org/1999/xlink">
    <title>Path</title>
    <g id="Page-1" stroke="none" stroke-width="1" fill="none" fill-rule="evenodd">
        <g id="prev-arrow-black" fill="#FFFFFF" fill-rule="nonzero">
            <path d="M41,17.4999715 C41,18.880432 39.8528578,19.9995164 38.4377863,19.9995164 L8.75197784,19.9995164 L19.7541237,30.7275629 C20.4022203,31.3598079 20.6553309,32.281325 20.4181111,33.1449877 C20.1808912,34.0086504 19.4893803,34.6832478 18.6040637,34.9146655 C17.7187472,35.1460832 16.7741257,34.8991634 16.126029,34.2669185 L0.752746542,19.2696493 C0.270836667,18.8007133 0,18.1639869 0,17.4999715 C0,16.8359561 0.270836667,16.1992297 0.752746542,15.7302937 L16.126029,0.733024532 C17.1278997,-0.244341511 18.752253,-0.244341511 19.7541237,0.733024532 C20.7559943,1.71039057 20.7559943,3.29501402 19.7541237,4.27238006 L8.75197784,15.0004266 L38.4377863,15.0004266 C39.8528578,15.0004266 41,16.119511 41,17.4999715 Z" id="Path"></path>
        </g>
    </g>
</svg>