<?xml version="1.0" encoding="UTF-8"?>
<svg width="6px" height="4px" viewBox="0 0 6 4" version="1.1" xmlns="http://www.w3.org/2000/svg" xmlns:xlink="http://www.w3.org/1999/xlink">
    <title>Path</title>
    <g id="Page-1" stroke="none" stroke-width="1" fill="none" fill-rule="evenodd">
        <path d="M-1.77635684e-15,2 C-1.77635684e-15,1.87728728 0.0959328577,1.77780896 0.214272035,1.77780896 L5.26809225,1.77780896 L3.91946406,0.379782956 C3.83567993,0.292902348 3.83567993,0.152041059 3.91946407,0.0651604551 C4.0032482,-0.0217201488 4.13908912,-0.0217201521 4.22287326,0.0651604476 L5.93704954,1.84268875 C5.97735055,1.88437368 6,1.94097395 6,2 C6,2.05902605 5.97735055,2.11562632 5.93704954,2.15731125 L4.22287326,3.93483955 C4.13908912,4.02172015 4.0032482,4.02172015 3.91946407,3.93483954 C3.83567993,3.84795894 3.83567993,3.70709765 3.91946406,3.62021704 L5.26809225,2.22219104 L0.214272035,2.22219104 C0.0959328577,2.22219104 -1.77635684e-15,2.12271272 -1.77635684e-15,2 Z" id="Path" fill="#E43D30" fill-rule="nonzero" transform="translate(3.000000, 2.000000) rotate(-180.000000) translate(-3.000000, -2.000000) "></path>
    </g>
</svg>