<svg xmlns="http://www.w3.org/2000/svg" viewBox="0 0 326.17 524.91"><defs><style>.cls-1,.cls-12,.cls-6,.cls-9{fill:#e0dbd5;}.cls-1,.cls-3,.cls-5,.cls-6,.cls-7,.cls-8,.cls-9{stroke:#1d1d1d;}.cls-1,.cls-9{stroke-linejoin:round;}.cls-1,.cls-3,.cls-5,.cls-6,.cls-9{stroke-width:4.07px;}.cls-2,.cls-4{fill:#18988b;}.cls-3,.cls-8{fill:none;}.cls-3,.cls-4,.cls-5,.cls-6,.cls-7,.cls-8{stroke-miterlimit:10;}.cls-4{stroke:#222;stroke-width:4.07px;}.cls-11,.cls-5,.cls-7{fill:#e43d30;}.cls-7,.cls-8{stroke-width:4.57px;}.cls-9{stroke-linecap:round;}.cls-10{fill:#231f20;}</style></defs><g id="Layer_2" data-name="Layer 2"><g id="Capa_1" data-name="Capa 1"><circle class="cls-1" cx="282.24" cy="261.19" r="41.9"/><line class="cls-1" x1="232" y1="238.84" x2="246.86" y2="238.84"/><line class="cls-1" x1="232" y1="283.53" x2="246.86" y2="283.53"/><rect class="cls-2" x="2.53" y="420.92" width="229.9" height="81.55"/><rect class="cls-3" x="2.67" y="223.17" width="229.63" height="280.76"/><polygon class="cls-4" points="232.3 223.03 2.67 223.03 23.81 146.29 211.16 146.29 232.3 223.03"/><path class="cls-4" d="M35.41,296.18H2.58v42.1a16.42,16.42,0,0,0,32.83,0h0Z"/><path class="cls-5" d="M35.41,338.28h0a16.46,16.46,0,0,0,16.41,16.4h0a16.45,16.45,0,0,0,16.41-16.41v-42.1H35.41Z"/><polygon class="cls-5" points="35.41 296.18 35.41 296.18 35.41 338.28 35.41 338.29 35.41 338.28 35.41 296.18"/><path class="cls-4" d="M101.06,296.18H68.23v42.27a16.42,16.42,0,0,0,32.83,0h0Z"/><path class="cls-5" d="M101.06,338.45h0a15.33,15.33,0,0,0,8.16,14.33c12.29,6.29,24.67-2.65,24.67-14.34V296.18h-32a.85.85,0,0,0-.85.84Z"/><polygon class="cls-5" points="101.06 296.18 101.06 296.18 101.06 338.45 101.06 338.46 101.06 338.45 101.06 296.18"/><path class="cls-4" d="M166.73,296.18H133.9v42.27a16.46,16.46,0,0,0,16.42,16.41h0a16.46,16.46,0,0,0,16.41-16.4h0Z"/><path class="cls-5" d="M166.73,338.45h0a16.42,16.42,0,0,0,32.83,0V296.18H166.73Z"/><polygon class="cls-5" points="166.73 296.18 166.73 296.18 166.73 338.45 166.73 338.46 166.73 338.45 166.73 296.18"/><path class="cls-4" d="M199.56,338.45a16.42,16.42,0,0,0,32.83,0V296.18H199.56Z"/><polygon class="cls-6" points="35.41 296.18 35.41 296.18 35.41 295.28 35.41 294.21 35.41 294.22 35.41 296.18"/><polygon class="cls-6" points="166.73 296.18 166.73 296.18 166.73 294.39 166.73 294.38 166.73 294.39 166.73 296.18"/><circle class="cls-6" cx="117.48" cy="258.62" r="25.61"/><circle class="cls-5" cx="117.48" cy="258.62" r="16.05"/><circle class="cls-6" cx="44.19" cy="258.62" r="25.61"/><circle class="cls-5" cx="44.19" cy="258.62" r="16.05"/><circle class="cls-6" cx="190.78" cy="258.62" r="25.61"/><circle class="cls-5" cx="190.78" cy="258.62" r="16.05"/><line class="cls-3" x1="2.86" y1="422.2" x2="232.11" y2="422.2"/><line class="cls-3" x1="5.96" y1="454.52" x2="12.96" y2="444.31"/><line class="cls-3" x1="206.51" y1="439.79" x2="213.5" y2="429.57"/><line class="cls-3" x1="39.4" y1="459.84" x2="34.66" y2="448.4"/><line class="cls-3" x1="147.61" y1="444.11" x2="159.13" y2="439.58"/><line class="cls-3" x1="126.44" y1="505.01" x2="121.71" y2="493.57"/><line class="cls-3" x1="86.88" y1="451.15" x2="76.14" y2="444.99"/><line class="cls-3" x1="176.99" y1="491.89" x2="166.26" y2="485.73"/><line class="cls-3" x1="46.29" y1="435.39" x2="57.35" y2="429.82"/><line class="cls-3" x1="124.98" y1="424.98" x2="136.52" y2="429.47"/><line class="cls-3" x1="167.97" y1="478.3" x2="163.37" y2="466.81"/><line class="cls-3" x1="28.42" y1="428.97" x2="17.62" y2="422.92"/><line class="cls-3" x1="187.22" y1="438.8" x2="176.42" y2="432.74"/><line class="cls-3" x1="99.98" y1="426.48" x2="92.68" y2="436.47"/><line class="cls-3" x1="92.85" y1="481.36" x2="82.05" y2="475.3"/><line class="cls-3" x1="150.44" y1="468.57" x2="138.15" y2="470.08"/><line class="cls-3" x1="20.89" y1="484.52" x2="29.66" y2="475.77"/><line class="cls-3" x1="70.5" y1="468.42" x2="63.4" y2="478.56"/><line class="cls-3" x1="112.02" y1="436.1" x2="121.87" y2="443.59"/><line class="cls-3" x1="55.54" y1="495.93" x2="67.09" y2="491.46"/><line class="cls-3" x1="9.93" y1="492.68" x2="17.3" y2="502.63"/><line class="cls-3" x1="100.98" y1="489.95" x2="93.88" y2="500.1"/><line class="cls-3" x1="147.02" y1="481.38" x2="139.92" y2="491.53"/><line class="cls-3" x1="110.19" y1="479.44" x2="122.32" y2="477"/><line class="cls-3" x1="6.9" y1="472.04" x2="18.75" y2="468.47"/><line class="cls-3" x1="223.29" y1="459.84" x2="218.56" y2="448.4"/><line class="cls-3" x1="220.24" y1="483.71" x2="229" y2="474.96"/><line class="cls-3" x1="202.77" y1="494.31" x2="210.14" y2="504.26"/><line class="cls-3" x1="196.49" y1="473.67" x2="208.34" y2="470.1"/><rect class="cls-1" x="83.14" y="482.78" width="68.68" height="11.53" rx="5.76" transform="translate(-371.06 606.02) rotate(-90)"/><rect class="cls-7" x="89.45" y="448.99" width="56.07" height="11.53" rx="5.76"/><rect class="cls-1" x="13.01" y="482.78" width="68.68" height="11.53" rx="5.76" transform="translate(-441.19 535.89) rotate(-90)"/><rect class="cls-7" x="19.31" y="448.99" width="56.07" height="11.53" rx="5.76"/><rect class="cls-1" x="153.28" y="482.78" width="68.68" height="11.53" rx="5.76" transform="translate(-300.92 676.16) rotate(-90)"/><rect class="cls-7" x="159.59" y="448.99" width="56.07" height="11.53" rx="5.76"/><rect class="cls-7" x="23.82" y="126.76" width="187.33" height="19.53"/><line class="cls-8" x1="117.48" y1="124.87" x2="117.48" y2="3.49"/><polygon class="cls-7" points="117.59 3.66 117.59 57.77 132.02 50.7 132.02 10.73 117.59 3.66"/><polygon class="cls-9" points="132.02 10.73 132.02 50.7 172.81 30.72 132.02 10.73"/><path class="cls-10" d="M311.89,241.39l-.35-.36a42,42,0,0,0-18.34-10.45,3,3,0,0,0-3.51,1.64l-3,6.44a3,3,0,0,0,0,2.59,3,3,0,0,0,2,1.6,28.39,28.39,0,0,1,5.46,1.87l-11.93,25.93-11.93-25.93a27.83,27.83,0,0,1,5.45-1.87,3,3,0,0,0,2-1.6,3.08,3.08,0,0,0,0-2.59l-3-6.44a3,3,0,0,0-2.73-1.74,3,3,0,0,0-.78.1A42,42,0,0,0,253.1,241c-.16.16-.31.32-.48.47a3,3,0,0,0-.56,3.35l3.15,6.85a3,3,0,0,0,2.33,1.72,2.68,2.68,0,0,0,.4,0,3,3,0,0,0,2-.74l19.67,42.74a3,3,0,0,0,5.47,0l19.67-42.77a2.93,2.93,0,0,0,1.83.62l.4,0a3,3,0,0,0,2.33-1.72l3.14-6.83A3,3,0,0,0,311.89,241.39Zm-53.95,9.05-3.15-6.86.39-.39a38.92,38.92,0,0,1,7.44-5.69,38.23,38.23,0,0,1,9.58-4l3,6.43a31.26,31.26,0,0,0-9,3.6,30.43,30.43,0,0,0-6.1,4.66A26.6,26.6,0,0,0,257.94,250.44Zm24.38,43.75-20.27-44.06a28.77,28.77,0,0,1,5.55-4.25l14.72,32,14.7-32a28.77,28.77,0,0,1,5.55,4.25Zm24.23-43.92c-.62-.73-1.28-1.43-2-2.09a32.07,32.07,0,0,0-15.14-8.26l3-6.43a38.61,38.61,0,0,1,17,9.7,2,2,0,0,1,.25.25Z"/><path class="cls-11" d="M302.57,250.13l-20.25,44.06-20.27-44.06a28.77,28.77,0,0,1,5.55-4.25l14.72,32,14.7-32A28.77,28.77,0,0,1,302.57,250.13Z"/><path class="cls-12" d="M309.69,243.44l-3.14,6.83c-.62-.73-1.28-1.43-2-2.09a32.07,32.07,0,0,0-15.14-8.26l3-6.43a38.61,38.61,0,0,1,17,9.7A2,2,0,0,1,309.69,243.44Z"/><path class="cls-12" d="M275.17,239.92a31.26,31.26,0,0,0-9,3.6,30.43,30.43,0,0,0-6.1,4.66,26.6,26.6,0,0,0-2.11,2.26l-3.15-6.86.39-.39a38.92,38.92,0,0,1,7.44-5.69,38.23,38.23,0,0,1,9.58-4Z"/></g></g></svg>